ffmpeg started on 2016-12-02 at 20:55:54
Report written to "Output/x264/results/ffmpeg/old_town_cross_2160p50veryslow11000k.log"
Command line:
Tools/ffmpeg/ffmpeg -benchmark -y -i Input/y4m/old_town_cross_2160p50.y4m -c:v libx264 -preset veryslow -b:v 11000k -an Output/x264/encoded/old_town_cross_2160p50veryslow11000k.mkv
ffmpeg version N-82227-gdb23fde Copyright (c) 2000-2016 the FFmpeg developers
  built with gcc 5.4.0 (Ubuntu 5.4.0-6ubuntu1~16.04.2) 20160609
  configuration: --prefix=/home/jaroslav/ffmpeg_build --pkg-config-flags=--static --extra-cflags=-I/home/jaroslav/ffmpeg_build/include --extra-ldflags=-L/home/jaroslav/ffmpeg_build/lib --bindir=/home/jaroslav/bin --enable-gpl --enable-libass --enable-libfdk-aac --enable-libfreetype --enable-libmp3lame --enable-libopus --enable-libtheora --enable-libvorbis --enable-libvpx --enable-libx264 --enable-libx265 --enable-nvenc --enable-libmfx --enable-libxvid --enable-libgsm --enable-libopencore-amrnb --enable-version3 --enable-nonfree
  libavutil      55. 35.100 / 55. 35.100
  libavcodec     57. 66.101 / 57. 66.101
  libavformat    57. 57.100 / 57. 57.100
  libavdevice    57.  2.100 / 57.  2.100
  libavfilter     6. 66.100 /  6. 66.100
  libswscale      4.  3.100 /  4.  3.100
  libswresample   2.  4.100 /  2.  4.100
  libpostproc    54.  2.100 / 54.  2.100
Input #0, yuv4mpegpipe, from 'Input/y4m/old_town_cross_2160p50.y4m':
  Duration: 00:00:10.00, start: 0.000000, bitrate: 4976642 kb/s
    Stream #0:0: Video: rawvideo (I420 / 0x30323449), yuv420p(progressive), 3840x2160, SAR 1:1 DAR 16:9, 50 fps, 50 tbr, 50 tbn, 50 tbc
[libx264 @ 0x2696120] using SAR=1/1
[libx264 @ 0x2696120] DPB size (16 frames, 518400 mbs) > level limit (5 frames, 184320 mbs)
[libx264 @ 0x2696120] using cpu capabilities: MMX2 SSE2Fast SSSE3 SSE4.2 AVX FMA3 AVX2 LZCNT BMI2
[libx264 @ 0x2696120] profile High, level 5.2
[libx264 @ 0x2696120] 264 - core 148 - H.264/MPEG-4 AVC codec - Copyleft 2003-2016 - http://www.videolan.org/x264.html - options: cabac=1 ref=16 deblock=1:0:0 analyse=0x3:0x133 me=umh subme=10 psy=1 psy_rd=1.00:0.00 mixed_ref=1 me_range=24 chroma_me=1 trellis=2 8x8dct=1 cqm=0 deadzone=21,11 fast_pskip=1 chroma_qp_offset=-2 threads=6 lookahead_threads=1 sliced_threads=0 nr=0 decimate=1 interlaced=0 bluray_compat=0 constrained_intra=0 bframes=8 b_pyramid=2 b_adapt=2 b_bias=0 direct=3 weightb=1 open_gop=0 weightp=2 keyint=250 keyint_min=25 scenecut=40 intra_refresh=0 rc_lookahead=60 rc=abr mbtree=1 bitrate=11000 ratetol=1.0 qcomp=0.60 qpmin=0 qpmax=69 qpstep=4 ip_ratio=1.40 aq=1:1.00
Output #0, matroska, to 'Output/x264/encoded/old_town_cross_2160p50veryslow11000k.mkv':
  Metadata:
    encoder         : Lavf57.57.100
    Stream #0:0: Video: h264 (libx264) (H264 / 0x34363248), yuv420p, 3840x2160 [SAR 1:1 DAR 16:9], q=-1--1, 11000 kb/s, 50 fps, 1k tbn, 50 tbc
    Metadata:
      encoder         : Lavc57.66.101 libx264
    Side data:
      cpb: bitrate max/min/avg: 0/0/11000000 buffer size: 0 vbv_delay: -1
Stream mapping:
  Stream #0:0 -> #0:0 (rawvideo (native) -> h264 (libx264))
Press [q] to stop, [?] for help
frame=   60 fps=0.0 q=0.0 size=       0kB time=00:00:00.00 bitrate=N/A speed=   0x    frame=   72 fps=8.0 q=0.0 size=       0kB time=00:00:00.00 bitrate=N/A speed=   0x    frame=   77 fps=6.6 q=33.0 size=       1kB time=-00:00:00.01 bitrate=N/A speed=N/A    frame=   78 fps=6.3 q=33.0 size=       1kB time=00:00:00.00 bitrate=5888.0kbits/s speed=8.02e-05x    frame=   80 fps=6.1 q=33.0 size=       1kB time=00:00:00.04 bitrate= 143.6kbits/s speed=0.00313x    frame=   84 fps=5.9 q=35.0 size=       1kB time=00:00:00.12 bitrate=  48.7kbits/s speed=0.00847x    frame=   86 fps=5.7 q=37.0 size=       1kB time=00:00:00.16 bitrate=  36.6kbits/s speed=0.0106x    frame=   90 fps=5.6 q=44.0 size=       1kB time=00:00:00.24 bitrate=  24.4kbits/s speed=0.0151x    frame=   92 fps=5.5 q=41.0 size=       1kB time=00:00:00.28 bitrate=  21.0kbits/s speed=0.0167x    frame=   97 fps=5.4 q=44.0 size=       1kB time=00:00:00.38 bitrate=  15.5kbits/s speed=0.0213x    frame=  100 fps=5.3 q=43.0 size=       1kB time=00:00:00.44 bitrate=  13.4kbits/s speed=0.0232x    frame=  105 fps=5.3 q=42.0 size=       1kB time=00:00:00.54 bitrate=  10.9kbits/s speed=0.0271x    frame=  106 fps=5.1 q=41.0 size=       1kB time=00:00:00.56 bitrate=  10.5kbits/s speed=0.0268x    frame=  108 fps=5.0 q=40.0 size=       1kB time=00:00:00.60 bitrate=   9.8kbits/s speed=0.0278x    frame=  113 fps=4.8 q=40.0 size=       1kB time=00:00:00.70 bitrate=   8.4kbits/s speed=0.0296x    frame=  115 fps=4.7 q=39.0 size=       1kB time=00:00:00.74 bitrate=   7.9kbits/s speed=0.0303x    frame=  119 fps=4.6 q=39.0 size=       1kB time=00:00:00.82 bitrate=   7.2kbits/s speed=0.0317x    frame=  121 fps=4.6 q=38.0 size=       1kB time=00:00:00.86 bitrate=   6.8kbits/s speed=0.0325x    frame=  122 fps=4.5 q=38.0 size=       1kB time=00:00:00.88 bitrate=   6.7kbits/s speed=0.0322x    frame=  123 fps=4.4 q=38.0 size=       1kB time=00:00:00.90 bitrate=   6.5kbits/s speed=0.032x    frame=  125 fps=4.3 q=37.0 size=       1kB time=00:00:00.94 bitrate=   6.3kbits/s speed=0.0326x    frame=  128 fps=4.3 q=37.0 size=       1kB time=00:00:01.00 bitrate=   5.9kbits/s speed=0.0336x    frame=  129 fps=4.2 q=37.0 size=       1kB time=00:00:01.02 bitrate=   5.8kbits/s speed=0.0329x    frame=  131 fps=4.0 q=37.0 size=       1kB time=00:00:01.06 bitrate=   5.5kbits/s speed=0.0327x    frame=  132 fps=4.0 q=37.0 size=       1kB time=00:00:01.08 bitrate=   5.4kbits/s speed=0.0328x    frame=  135 fps=4.0 q=37.0 size=       1kB time=00:00:01.14 bitrate=   5.2kbits/s speed=0.0338x    frame=  137 fps=3.9 q=36.0 size=       1kB time=00:00:01.18 bitrate=   5.0kbits/s speed=0.0333x    frame=  139 fps=3.7 q=36.0 size=       1kB time=00:00:01.22 bitrate=   4.8kbits/s speed=0.0327x    frame=  140 fps=3.7 q=36.0 size=       1kB time=00:00:01.24 bitrate=   4.7kbits/s speed=0.0328x    frame=  145 fps=3.6 q=36.0 size=       1kB time=00:00:01.34 bitrate=   4.4kbits/s speed=0.033x    frame=  148 fps=3.5 q=36.0 size=       1kB time=00:00:01.40 bitrate=   4.2kbits/s speed=0.0334x    frame=  149 fps=3.4 q=36.0 size=       1kB time=00:00:01.42 bitrate=   4.1kbits/s speed=0.0329x    frame=  151 fps=3.5 q=35.0 size=       1kB time=00:00:01.46 bitrate=   4.0kbits/s speed=0.0334x    frame=  154 fps=3.4 q=35.0 size=       1kB time=00:00:01.52 bitrate=   3.9kbits/s speed=0.034x    frame=  155 fps=3.3 q=35.0 size=       1kB time=00:00:01.54 bitrate=   3.8kbits/s speed=0.033x    frame=  157 fps=3.3 q=35.0 size=       1kB time=00:00:01.58 bitrate=   3.7kbits/s speed=0.0329x    frame=  159 fps=3.3 q=35.0 size=       1kB time=00:00:01.62 bitrate=   3.6kbits/s speed=0.0331x    frame=  163 fps=3.2 q=35.0 size=       1kB time=00:00:01.70 bitrate=   3.5kbits/s speed=0.0331x    frame=  164 fps=3.1 q=35.0 size=       1kB time=00:00:01.72 bitrate=   3.4kbits/s speed=0.0331x    frame=  166 fps=3.1 q=35.0 size=       1kB time=00:00:01.76 bitrate=   3.3kbits/s speed=0.0329x    frame=  168 fps=3.1 q=35.0 size=       1kB time=00:00:01.80 bitrate=   3.3kbits/s speed=0.0331x    frame=  172 fps=3.0 q=35.0 size=       1kB time=00:00:01.88 bitrate=   3.1kbits/s speed=0.0329x    frame=  174 fps=3.0 q=35.0 size=       1kB time=00:00:01.92 bitrate=   3.1kbits/s speed=0.0332x    frame=  175 fps=3.0 q=34.0 size=       1kB time=00:00:01.94 bitrate=   3.0kbits/s speed=0.0329x    frame=  176 fps=3.0 q=34.0 size=       1kB time=00:00:01.96 bitrate=   3.0kbits/s speed=0.0329x    frame=  179 fps=3.0 q=34.0 size=       1kB time=00:00:02.02 bitrate=   2.9kbits/s speed=0.0336x    frame=  181 fps=2.9 q=34.0 size=       1kB time=00:00:02.06 bitrate=   2.9kbits/s speed=0.0331x    frame=  183 fps=2.9 q=34.0 size=       1kB time=00:00:02.10 bitrate=   2.8kbits/s speed=0.0332x    frame=  184 fps=2.8 q=34.0 size=       1kB time=00:00:02.12 bitrate=   2.8kbits/s speed=0.0327x    frame=  186 fps=2.8 q=34.0 size=       1kB time=00:00:02.16 bitrate=   2.7kbits/s speed=0.033x    frame=  190 fps=2.8 q=34.0 size=       1kB time=00:00:02.24 bitrate=   2.6kbits/s speed=0.033x    frame=  191 fps=2.8 q=34.0 size=       1kB time=00:00:02.26 bitrate=   2.6kbits/s speed=0.0329x    frame=  193 fps=2.7 q=34.0 size=       1kB time=00:00:02.30 bitrate=   2.6kbits/s speed=0.0326x    frame=  194 fps=2.7 q=34.0 size=       1kB time=00:00:02.32 bitrate=   2.5kbits/s speed=0.0326x    frame=  196 fps=2.7 q=34.0 size=       1kB time=00:00:02.36 bitrate=   2.5kbits/s speed=0.0329x    frame=  199 fps=2.7 q=34.0 size=       1kB time=00:00:02.42 bitrate=   2.4kbits/s speed=0.0328x    frame=  200 fps=2.7 q=34.0 size=       1kB time=00:00:02.44 bitrate=   2.4kbits/s speed=0.0328x    frame=  202 fps=2.6 q=34.0 size=       1kB time=00:00:02.48 bitrate=   2.4kbits/s speed=0.0325x    frame=  204 fps=2.6 q=34.0 size=       1kB time=00:00:02.52 bitrate=   2.3kbits/s speed=0.0327x    frame=  208 fps=2.6 q=34.0 size=       1kB time=00:00:02.60 bitrate=   2.3kbits/s speed=0.0326x    frame=  209 fps=2.6 q=34.0 size=       1kB time=00:00:02.62 bitrate=   2.2kbits/s speed=0.0323x    frame=  211 fps=2.6 q=34.0 size=       1kB time=00:00:02.66 bitrate=   2.2kbits/s speed=0.0324x    frame=  215 fps=2.5 q=34.0 size=       1kB time=00:00:02.74 bitrate=   2.1kbits/s speed=0.0323x    frame=  218 fps=2.5 q=34.0 size=       1kB time=00:00:02.80 bitrate=   2.1kbits/s speed=0.0322x    frame=  219 fps=2.5 q=34.0 size=       1kB time=00:00:02.82 bitrate=   2.1kbits/s speed=0.0322x    frame=  224 fps=2.5 q=34.0 size=       1kB time=00:00:02.92 bitrate=   2.0kbits/s speed=0.0323x    frame=  226 fps=2.5 q=34.0 size=       1kB time=00:00:02.96 bitrate=   2.0kbits/s speed=0.0324x    frame=  228 fps=2.5 q=34.0 size=       1kB time=00:00:03.00 bitrate=   2.0kbits/s speed=0.0323x    frame=  230 fps=2.4 q=34.0 size=       1kB time=00:00:03.04 bitrate=   1.9kbits/s speed=0.0324x    frame=  233 fps=2.4 q=34.0 size=       1kB time=00:00:03.10 bitrate=   1.9kbits/s speed=0.0323x    frame=  234 fps=2.4 q=34.0 size=       1kB time=00:00:03.12 bitrate=   1.9kbits/s speed=0.032x    frame=  239 fps=2.4 q=34.0 size=       1kB time=00:00:03.22 bitrate=   1.8kbits/s speed=0.0323x    frame=  240 fps=2.4 q=34.0 size=       1kB time=00:00:03.24 bitrate=   1.8kbits/s speed=0.032x    frame=  245 fps=2.4 q=33.0 size=       1kB time=00:00:03.34 bitrate=   1.8kbits/s speed=0.0328x    frame=  246 fps=2.4 q=33.0 size=       1kB time=00:00:03.36 bitrate=   1.8kbits/s speed=0.0324x    frame=  247 fps=2.3 q=33.0 size=       1kB time=00:00:03.38 bitrate=   1.7kbits/s speed=0.0321x    frame=  249 fps=2.3 q=33.0 size=       1kB time=00:00:03.42 bitrate=   1.7kbits/s speed=0.0322x    frame=  251 fps=2.4 q=33.0 size=       1kB time=00:00:03.46 bitrate=   1.7kbits/s speed=0.0324x    frame=  252 fps=2.3 q=33.0 size=       1kB time=00:00:03.48 bitrate=   1.7kbits/s speed=0.0322x    frame=  254 fps=2.3 q=34.0 size=       1kB time=00:00:03.52 bitrate=   1.7kbits/s speed=0.0324x    frame=  256 fps=2.3 q=33.0 size=       1kB time=00:00:03.56 bitrate=   1.7kbits/s speed=0.0325x    frame=  258 fps=2.3 q=33.0 size=       1kB time=00:00:03.60 bitrate=   1.6kbits/s speed=0.0323x    frame=  260 fps=2.3 q=34.0 size=       1kB time=00:00:03.64 bitrate=   1.6kbits/s speed=0.0321x    frame=  262 fps=2.3 q=34.0 size=       1kB time=00:00:03.68 bitrate=   1.6kbits/s speed=0.0322x    frame=  266 fps=2.3 q=34.0 size=       1kB time=00:00:03.76 bitrate=   1.6kbits/s speed=0.0322x    frame=  269 fps=2.3 q=34.0 size=       1kB time=00:00:03.82 bitrate=   1.5kbits/s speed=0.0321x    frame=  270 fps=2.3 q=34.0 size=       1kB time=00:00:03.84 bitrate=   1.5kbits/s speed=0.0321x    frame=  273 fps=2.3 q=33.0 size=       1kB time=00:00:03.90 bitrate=   1.5kbits/s speed=0.0324x    frame=  275 fps=2.2 q=33.0 size=       1kB time=00:00:03.94 bitrate=   1.5kbits/s speed=0.0322x    frame=  277 fps=2.2 q=33.0 size=       1kB time=00:00:03.98 bitrate=   1.5kbits/s speed=0.0323x    frame=  278 fps=2.2 q=33.0 size=       1kB time=00:00:04.00 bitrate=   1.5kbits/s speed=0.0322x    frame=  279 fps=2.2 q=33.0 size=       1kB time=00:00:04.02 bitrate=   1.5kbits/s speed=0.0322x    frame=  283 fps=2.2 q=33.0 size=    5129kB time=00:00:04.10 bitrate=10244.9kbits/s speed=0.0324x    frame=  284 fps=2.2 q=33.0 size=    5129kB time=00:00:04.12 bitrate=10195.2kbits/s speed=0.0324x    frame=  285 fps=2.2 q=33.0 size=    5129kB time=00:00:04.14 bitrate=10146.0kbits/s speed=0.0322x    frame=  287 fps=2.2 q=33.0 size=    5129kB time=00:00:04.18 bitrate=10048.9kbits/s speed=0.0323x    frame=  289 fps=2.2 q=33.0 size=    5129kB time=00:00:04.22 bitrate=9953.7kbits/s speed=0.0323x    frame=  291 fps=2.2 q=33.0 size=    5129kB time=00:00:04.26 bitrate=9860.2kbits/s speed=0.0323x    frame=  293 fps=2.2 q=33.0 size=    5129kB time=00:00:04.30 bitrate=9768.5kbits/s speed=0.0323x    frame=  295 fps=2.2 q=33.0 size=    5129kB time=00:00:04.34 bitrate=9678.5kbits/s speed=0.0322x    frame=  297 fps=2.2 q=33.0 size=    5129kB time=00:00:04.38 bitrate=9590.2kbits/s speed=0.0322x    frame=  301 fps=2.2 q=33.0 size=    5129kB time=00:00:04.46 bitrate=9418.2kbits/s speed=0.0323x    frame=  303 fps=2.2 q=33.0 size=    5129kB time=00:00:04.50 bitrate=9334.5kbits/s speed=0.0321x    frame=  305 fps=2.2 q=33.0 size=    5129kB time=00:00:04.54 bitrate=9252.3kbits/s speed=0.0322x    frame=  309 fps=2.2 q=33.0 size=    5129kB time=00:00:04.62 bitrate=9092.1kbits/s speed=0.0322x    frame=  310 fps=2.1 q=33.0 size=    5129kB time=00:00:04.64 bitrate=9052.9kbits/s speed=0.0321x    frame=  311 fps=2.1 q=33.0 size=    5129kB time=00:00:04.66 bitrate=9014.0kbits/s speed=0.0321x    frame=  313 fps=2.1 q=33.0 size=    5129kB time=00:00:04.70 bitrate=8937.3kbits/s speed=0.0318x    frame=  318 fps=2.1 q=33.0 size=    5129kB time=00:00:04.80 bitrate=8751.2kbits/s speed=0.0317x    frame=  320 fps=2.1 q=30.0 size=    5129kB time=00:00:04.84 bitrate=8678.9kbits/s speed=0.0318x    frame=  324 fps=2.1 q=34.0 size=    5129kB time=00:00:04.92 bitrate=8537.8kbits/s speed=0.032x    frame=  326 fps=2.1 q=34.0 size=    6148kB time=00:00:04.96 bitrate=10151.3kbits/s speed=0.032x    frame=  329 fps=2.1 q=34.0 size=    6148kB time=00:00:05.02 bitrate=10030.0kbits/s speed=0.0322x    frame=  332 fps=2.1 q=34.0 size=    6148kB time=00:00:05.08 bitrate=9911.5kbits/s speed=0.0325x    frame=  333 fps=2.1 q=34.0 size=    6148kB time=00:00:05.10 bitrate=9872.7kbits/s speed=0.0325x    frame=  336 fps=2.1 q=34.0 size=    6148kB time=00:00:05.16 bitrate=9757.9kbits/s speed=0.0325x    frame=  338 fps=2.1 q=35.0 size=    6148kB time=00:00:05.20 bitrate=9682.8kbits/s speed=0.0326x    frame=  342 fps=2.1 q=35.0 size=    6148kB time=00:00:05.28 bitrate=9536.2kbits/s speed=0.033x    frame=  343 fps=2.1 q=35.0 size=    6148kB time=00:00:05.30 bitrate=9500.2kbits/s speed=0.0329x    frame=  345 fps=2.1 q=35.0 size=    6148kB time=00:00:05.34 bitrate=9429.0kbits/s speed=0.0328x    frame=  349 fps=2.1 q=35.0 size=    6148kB time=00:00:05.42 bitrate=9289.9kbits/s speed=0.0332x    frame=  351 fps=2.1 q=35.0 size=    6148kB time=00:00:05.46 bitrate=9221.8kbits/s speed=0.0332x    frame=  352 fps=2.1 q=35.0 size=    6148kB time=00:00:05.48 bitrate=9188.2kbits/s speed=0.0332x    frame=  354 fps=2.1 q=35.0 size=    6148kB time=00:00:05.52 bitrate=9121.6kbits/s speed=0.0332x    frame=  356 fps=2.1 q=34.0 size=    6148kB time=00:00:05.56 bitrate=9056.0kbits/s speed=0.0333x    frame=  358 fps=2.1 q=34.0 size=    6148kB time=00:00:05.60 bitrate=8991.3kbits/s speed=0.0334x    frame=  360 fps=2.1 q=34.0 size=    6148kB time=00:00:05.64 bitrate=8927.6kbits/s speed=0.0334x    frame=  361 fps=2.1 q=34.0 size=    6148kB time=00:00:05.66 bitrate=8896.0kbits/s speed=0.0333x    frame=  363 fps=2.1 q=34.0 size=    6148kB time=00:00:05.70 bitrate=8833.6kbits/s speed=0.0333x    frame=  364 fps=2.1 q=34.0 size=    6148kB time=00:00:05.72 bitrate=8802.7kbits/s speed=0.0333x    frame=  366 fps=2.1 q=34.0 size=    6148kB time=00:00:05.76 bitrate=8741.6kbits/s speed=0.0334x    frame=  367 fps=2.1 q=34.0 size=    6148kB time=00:00:05.78 bitrate=8711.4kbits/s speed=0.0334x    frame=  369 fps=2.1 q=34.0 size=    6148kB time=00:00:05.82 bitrate=8651.5kbits/s speed=0.0335x    frame=  372 fps=2.1 q=34.0 size=    6148kB time=00:00:05.88 bitrate=8563.2kbits/s speed=0.0335x    frame=  373 fps=2.1 q=34.0 size=    6148kB time=00:00:05.90 bitrate=8534.2kbits/s speed=0.0334x    frame=  375 fps=2.1 q=34.0 size=    6148kB time=00:00:05.94 bitrate=8476.8kbits/s speed=0.0335x    frame=  377 fps=2.1 q=34.0 size=    6148kB time=00:00:05.98 bitrate=8420.1kbits/s speed=0.0333x    frame=  379 fps=2.1 q=34.0 size=    6148kB time=00:00:06.02 bitrate=8364.1kbits/s speed=0.0333x    frame=  382 fps=2.1 q=34.0 size=    6148kB time=00:00:06.08 bitrate=8281.6kbits/s speed=0.0336x    frame=  383 fps=2.1 q=34.0 size=    6148kB time=00:00:06.10 bitrate=8254.5kbits/s speed=0.0334x    frame=  385 fps=2.1 q=34.0 size=    6148kB time=00:00:06.14 bitrate=8200.7kbits/s speed=0.0334x    frame=  386 fps=2.1 q=34.0 size=    6148kB time=00:00:06.16 bitrate=8174.1kbits/s speed=0.0333x    frame=  388 fps=2.1 q=34.0 size=    6148kB time=00:00:06.20 bitrate=8121.3kbits/s speed=0.0334x    frame=  389 fps=2.1 q=34.0 size=    6148kB time=00:00:06.22 bitrate=8095.2kbits/s speed=0.0334x    frame=  391 fps=2.1 q=34.0 size=    6148kB time=00:00:06.26 bitrate=8043.5kbits/s speed=0.0332x    frame=  393 fps=2.1 q=34.0 size=    6148kB time=00:00:06.30 bitrate=7992.5kbits/s speed=0.0333x    frame=  397 fps=2.1 q=34.0 size=    6148kB time=00:00:06.38 bitrate=7892.3kbits/s speed=0.0332x    frame=  400 fps=2.1 q=34.0 size=    6148kB time=00:00:06.44 bitrate=7818.7kbits/s speed=0.0332x    frame=  401 fps=2.1 q=34.0 size=    6148kB time=00:00:06.46 bitrate=7794.5kbits/s speed=0.0332x    frame=  403 fps=2.1 q=34.0 size=    6148kB time=00:00:06.50 bitrate=7746.6kbits/s speed=0.0333x    frame=  405 fps=2.1 q=34.0 size=    6148kB time=00:00:06.54 bitrate=7699.2kbits/s speed=0.0334x    frame=  406 fps=2.1 q=34.0 size=    6148kB time=00:00:06.56 bitrate=7675.7kbits/s speed=0.0333x    frame=  407 fps=2.1 q=34.0 size=    6148kB time=00:00:06.58 bitrate=7652.4kbits/s speed=0.0332x    frame=  409 fps=2.0 q=34.0 size=    6148kB time=00:00:06.62 bitrate=7606.2kbits/s speed=0.0332x    frame=  410 fps=2.0 q=34.0 size=    6148kB time=00:00:06.64 bitrate=7583.3kbits/s speed=0.0332x    frame=  413 fps=2.1 q=34.0 size=    6148kB time=00:00:06.70 bitrate=7515.4kbits/s speed=0.0333x    frame=  415 fps=2.1 q=34.0 size=    6148kB time=00:00:06.74 bitrate=7470.8kbits/s speed=0.0333x    frame=  416 fps=2.0 q=34.0 size=    6148kB time=00:00:06.76 bitrate=7448.7kbits/s speed=0.0332x    frame=  418 fps=2.0 q=34.0 size=    6148kB time=00:00:06.80 bitrate=7404.9kbits/s speed=0.0332x    frame=  419 fps=2.0 q=34.0 size=    6148kB time=00:00:06.82 bitrate=7383.1kbits/s speed=0.0332x    frame=  421 fps=2.0 q=34.0 size=    6148kB time=00:00:06.86 bitrate=7340.1kbits/s speed=0.0333x    frame=  422 fps=2.0 q=34.0 size=    6148kB time=00:00:06.88 bitrate=7318.8kbits/s speed=0.0332x    frame=  424 fps=2.0 q=34.0 size=    6148kB time=00:00:06.92 bitrate=7276.5kbits/s speed=0.0332x    frame=  425 fps=2.0 q=34.0 size=    6148kB time=00:00:06.94 bitrate=7255.5kbits/s speed=0.0332x    frame=  427 fps=2.0 q=34.0 size=    6148kB time=00:00:06.98 bitrate=7213.9kbits/s speed=0.0331x    frame=  428 fps=2.0 q=34.0 size=    6148kB time=00:00:07.00 bitrate=7193.3kbits/s speed=0.033x    frame=  433 fps=2.0 q=34.0 size=    6148kB time=00:00:07.10 bitrate=7092.0kbits/s speed=0.0332x    frame=  434 fps=2.0 q=34.0 size=    6148kB time=00:00:07.12 bitrate=7072.1kbits/s speed=0.0331x    frame=  435 fps=2.0 q=34.0 size=    6148kB time=00:00:07.14 bitrate=7052.3kbits/s speed=0.0332x    frame=  436 fps=2.0 q=34.0 size=    6148kB time=00:00:07.16 bitrate=7032.6kbits/s speed=0.033x    frame=  438 fps=2.0 q=34.0 size=    6148kB time=00:00:07.20 bitrate=6993.5kbits/s speed=0.033x    frame=  442 fps=2.0 q=34.0 size=    6148kB time=00:00:07.28 bitrate=6916.7kbits/s speed=0.033x    frame=  444 fps=2.0 q=34.0 size=    6148kB time=00:00:07.32 bitrate=6878.9kbits/s speed=0.033x    frame=  445 fps=2.0 q=34.0 size=    6148kB time=00:00:07.34 bitrate=6860.2kbits/s speed=0.033x    frame=  447 fps=2.0 q=34.0 size=    6148kB time=00:00:07.38 bitrate=6823.0kbits/s speed=0.033x    frame=  449 fps=2.0 q=34.0 size=    6148kB time=00:00:07.42 bitrate=6786.2kbits/s speed=0.0331x    frame=  450 fps=2.0 q=34.0 size=    6148kB time=00:00:07.44 bitrate=6768.0kbits/s speed=0.0331x    frame=  451 fps=2.0 q=34.0 size=    6148kB time=00:00:07.46 bitrate=6749.8kbits/s speed=0.033x    frame=  452 fps=2.0 q=34.0 size=    6148kB time=00:00:07.48 bitrate=6731.8kbits/s speed=0.0329x    frame=  454 fps=2.0 q=34.0 size=    6148kB time=00:00:07.52 bitrate=6696.0kbits/s speed=0.033x    frame=  457 fps=2.0 q=34.0 size=    6148kB time=00:00:07.58 bitrate=6643.0kbits/s speed=0.0329x    frame=  459 fps=2.0 q=34.0 size=    6148kB time=00:00:07.62 bitrate=6608.1kbits/s speed=0.0329x    frame=  463 fps=2.0 q=34.0 size=    6148kB time=00:00:07.70 bitrate=6539.5kbits/s speed=0.0328x    frame=  465 fps=2.0 q=34.0 size=    6148kB time=00:00:07.74 bitrate=6505.7kbits/s speed=0.0329x    frame=  469 fps=2.0 q=34.0 size=    6148kB time=00:00:07.82 bitrate=6439.1kbits/s speed=0.0328x    frame=  472 fps=2.0 q=34.0 size=    6148kB time=00:00:07.88 bitrate=6390.1kbits/s speed=0.0328x    frame=  474 fps=2.0 q=34.0 size=    6148kB time=00:00:07.92 bitrate=6357.8kbits/s speed=0.0329x    frame=  478 fps=2.0 q=34.0 size=    6148kB time=00:00:08.00 bitrate=6294.3kbits/s speed=0.0329x    frame=  479 fps=2.0 q=34.0 size=    6148kB time=00:00:08.02 bitrate=6278.6kbits/s speed=0.0327x    frame=  481 fps=2.0 q=34.0 size=    6148kB time=00:00:08.06 bitrate=6247.4kbits/s speed=0.0328x    frame=  485 fps=2.0 q=34.0 size=    6148kB time=00:00:08.14 bitrate=6186.0kbits/s speed=0.0328x    frame=  488 fps=1.9 q=34.0 size=    6148kB time=00:00:08.20 bitrate=6140.8kbits/s speed=0.0327x    frame=  490 fps=1.9 q=34.0 size=    6148kB time=00:00:08.24 bitrate=6111.0kbits/s speed=0.0327x    frame=  494 fps=1.9 q=34.0 size=    6148kB time=00:00:08.32 bitrate=6052.2kbits/s speed=0.0328x    frame=  495 fps=1.9 q=34.0 size=    6148kB time=00:00:08.34 bitrate=6037.7kbits/s speed=0.0328x    frame=  496 fps=1.9 q=34.0 size=    6148kB time=00:00:08.36 bitrate=6023.3kbits/s speed=0.0328x    frame=  497 fps=1.9 q=34.0 size=    6148kB time=00:00:08.38 bitrate=6008.9kbits/s speed=0.0328x    frame=  500 fps=2.0 q=34.0 size=    6148kB time=00:00:08.44 bitrate=5966.2kbits/s speed=0.033x    frame=  500 fps=1.9 q=34.0 size=    6148kB time=00:00:08.44 bitrate=5966.2kbits/s speed=0.0328x    frame=  500 fps=1.7 q=-1.0 Lsize=   13322kB time=00:00:09.94 bitrate=10978.2kbits/s speed=0.0331x    
video:13318kB audio:0kB subtitle:0kB other streams:0kB global headers:0kB muxing overhead: 0.033423%
bench: utime=1155.348s
bench: maxrss=3684412kB
[libx264 @ 0x2696120] frame I:3     Avg QP:29.47  size:639006
[libx264 @ 0x2696120] frame P:63    Avg QP:33.31  size: 79777
[libx264 @ 0x2696120] frame B:434   Avg QP:35.64  size: 15423
[libx264 @ 0x2696120] consecutive B-frames:  0.8%  0.0%  0.0%  1.6%  4.0%  3.6% 11.2% 17.6% 61.2%
[libx264 @ 0x2696120] mb I  I16..4: 14.0% 80.9%  5.1%
[libx264 @ 0x2696120] mb P  I16..4:  0.0%  0.3%  0.0%  P16..4: 45.7%  5.3% 10.3%  0.0%  0.0%    skip:38.4%
[libx264 @ 0x2696120] mb B  I16..4:  0.0%  0.0%  0.0%  B16..8: 48.0%  0.3%  0.0%  direct: 0.1%  skip:51.5%  L0:51.7% L1:48.3% BI: 0.1%
[libx264 @ 0x2696120] final ratefactor: 25.93
[libx264 @ 0x2696120] 8x8 transform intra:81.1% inter:67.5%
[libx264 @ 0x2696120] direct mvs  spatial:99.1% temporal:0.9%
[libx264 @ 0x2696120] coded y,uvDC,uvAC intra: 94.8% 80.9% 64.0% inter: 2.2% 1.6% 0.0%
[libx264 @ 0x2696120] i16 v,h,dc,p: 12% 18% 43% 28%
[libx264 @ 0x2696120] i8 v,h,dc,ddl,ddr,vr,hd,vl,hu:  5%  8%  1% 14% 18% 14% 18%  9% 12%
[libx264 @ 0x2696120] i4 v,h,dc,ddl,ddr,vr,hd,vl,hu:  3%  4%  1% 14% 18% 15% 20% 11% 15%
[libx264 @ 0x2696120] i8c dc,h,v,p: 45% 26% 15% 13%
[libx264 @ 0x2696120] Weighted P-Frames: Y:3.2% UV:1.6%
[libx264 @ 0x2696120] ref P L0: 53.6% 17.1% 15.2%  3.2%  3.0%  2.0%  2.1%  0.6%  0.6%  0.5%  0.5%  0.4%  0.4%  0.3%  0.4%  0.1%
[libx264 @ 0x2696120] ref B L0: 74.2%  8.2%  6.9%  2.1%  2.0%  1.8%  1.7%  0.5%  0.5%  0.5%  0.5%  0.5%  0.5%  0.3%  0.1%
[libx264 @ 0x2696120] ref B L1: 94.1%  5.9%
[libx264 @ 0x2696120] kb/s:10909.22
